<!--?xml version="1.0" encoding="utf-8"?-->
<!-- Generator: Adobe Illustrator 18.1.1, SVG Export Plug-In . SVG Version: 6.00 Build 0)  -->

<svg version="1.1" id="_x32_" xmlns="http://www.w3.org/2000/svg" xmlns:xlink="http://www.w3.org/1999/xlink" x="0px" y="0px" viewBox="0 0 512 512" style="width: 256px; height: 256px; opacity: 1;" xml:space="preserve">
<style type="text/css">
	.st0{fill:#4B4B4B;}
</style>
<g>
	<path class="st0" d="M180.331,401.808l-12.426,8.496c7.958,11.646,18.103,21.493,29.716,29.094l8.239-12.598
		C195.873,420.268,187.161,411.805,180.331,401.808z" style="fill: rgb(75, 75, 75);"></path>
	<path class="st0" d="M237.342,260.468c6.308-1.301,12.574-1.94,18.749-1.94c5.678,0,11.273,0.538,16.736,1.566l2.776-14.803
		c-6.366-1.194-12.897-1.816-19.512-1.816c-7.195,0-14.497,0.738-21.816,2.254l-0.274,0.067l3.1,14.729L237.342,260.468z" style="fill: rgb(75, 75, 75);"></path>
	<path class="st0" d="M204.253,274.534l-8.505-12.425c-11.637,7.974-21.484,18.128-29.06,29.748l12.607,8.223
		C185.81,290.092,194.265,281.372,204.253,274.534z" style="fill: rgb(75, 75, 75);"></path>
	<path class="st0" d="M164.383,350.037c0-5.703,0.531-11.323,1.567-16.81l-14.804-2.794c-1.194,6.399-1.823,12.956-1.823,19.604
		c0,7.195,0.729,14.506,2.254,21.816l0.042,0.182l14.737-3.092l-0.033-0.157C165.005,362.486,164.383,356.212,164.383,350.037z" style="fill: rgb(75, 75, 75);"></path>
	<path class="st0" d="M274.633,439.821c-6.3,1.302-12.574,1.932-18.749,1.932c-5.736,0-11.381-0.539-16.893-1.584l-2.801,14.788
		c6.424,1.219,13.014,1.857,19.694,1.857c7.203,0,14.506-0.738,21.808-2.263l0.108-0.017l-3.084-14.737L274.633,439.821z" style="fill: rgb(75, 75, 75);"></path>
	<path class="st0" d="M360.397,328.436l-0.074-0.381l-14.73,3.124l0.066,0.323c1.31,6.3,1.94,12.566,1.94,18.75
		c0,5.76-0.547,11.43-1.599,16.967l14.786,2.819c1.236-6.458,1.866-13.072,1.866-19.786
		C362.652,343.05,361.923,335.747,360.397,328.436z" style="fill: rgb(75, 75, 75);"></path>
	<path class="st0" d="M307.59,425.846l8.488,12.442c11.654-7.957,21.509-18.095,29.11-29.691l-12.59-8.255
		C326.057,410.313,317.586,419.024,307.59,425.846z" style="fill: rgb(75, 75, 75);"></path>
	<path class="st0" d="M331.553,298.34l12.416-8.512c-7.982-11.638-18.144-21.468-29.773-29.036l-8.214,12.607
		C315.977,279.913,324.706,288.368,331.553,298.34z" style="fill: rgb(75, 75, 75);"></path>
	<polygon class="st0" points="307.615,332.473 271.94,327.292 255.983,294.966 240.036,327.292 204.361,332.473 230.172,357.638 
		224.08,393.172 255.983,376.395 287.896,393.172 281.803,357.638 	" style="fill: rgb(75, 75, 75);"></polygon>
	<path class="st0" d="M370.46,235.692c-12.989-12.98-28.19-23.78-45.016-31.77l69.668-76.672c5.081-5.604,9.001-12.036,11.629-18.89
		c2.636-6.847,3.995-14.116,3.995-21.452c0-6.971-1.243-14-3.729-20.738l-0.266-0.754l-0.447-1.202
		c-0.647,1.99-1.351,4.02-2.18,6.092c-3.655,8.811-9.267,18.219-17.357,28.381l-0.149,0.182L298.53,193.95
		c-4.178-1.128-8.43-2.106-12.723-2.901l92.262-99.55c7.476-9.448,12.492-17.912,15.574-25.479
		c3.125-7.642,4.368-14.381,4.368-20.59c0-1.467-0.116-2.901-0.224-4.335l-0.68-1.84c-4.335-11.778-12.16-21.642-21.982-28.456
		C365.305,3.954,353.377,0,340.836,0H171.122c-12.532,0-24.46,3.954-34.291,10.8c-9.822,6.814-17.647,16.678-21.974,28.456
		l-0.646,1.732c-0.15,1.466-0.266,2.934-0.266,4.442c0,6.209,1.244,12.947,4.376,20.59c3.117,7.568,8.09,16.031,15.617,25.479
		l92.212,99.55c-4.284,0.795-8.545,1.773-12.723,2.942l-88.069-95.122l-0.116-0.182c-8.09-10.162-13.743-19.57-17.357-28.381
		c-0.862-2.106-1.574-4.136-2.213-6.134l-0.447,1.244l-0.274,0.754c-2.478,6.738-3.68,13.767-3.68,20.738
		c0,7.336,1.31,14.605,3.954,21.452c2.627,6.855,6.54,13.287,11.629,18.89l69.701,76.672c-16.826,7.99-32.028,18.79-45.016,31.77
		c-29.243,29.252-47.387,69.817-47.387,114.461c0,44.643,18.144,85.176,47.387,114.427C170.783,493.856,211.365,512,256,512
		c44.635,0,85.218-18.144,114.46-47.42c29.243-29.251,47.387-69.784,47.387-114.427C417.847,305.509,399.703,264.944,370.46,235.692
		z M150.989,65.116l13.063-11.744l11.745,13.245h160.414l11.704-13.245l13.064,11.744L256,181.268L150.989,65.116z M349.158,443.311
		c-23.905,23.863-56.72,38.576-93.158,38.576c-36.43,0-69.253-14.713-93.158-38.576c-23.864-23.905-38.577-56.721-38.577-93.158
		c0-36.438,14.713-69.295,38.577-93.158c12.765-12.723,28.041-22.844,45.099-29.542c3.755-1.467,7.593-2.785,11.547-3.92
		c11.554-3.307,23.83-5.122,36.512-5.122c12.491,0,24.576,1.741,36.024,5.014c4.103,1.169,8.098,2.487,12.002,4.062
		c17.05,6.623,32.376,16.785,45.133,29.508c23.863,23.863,38.576,56.72,38.576,93.158
		C387.734,386.59,373.021,419.406,349.158,443.311z" style="fill: rgb(75, 75, 75);"></path>
</g>
</svg>
