<!--?xml version="1.0" encoding="utf-8"?-->
<!-- Generator: Adobe Illustrator 18.1.1, SVG Export Plug-In . SVG Version: 6.00 Build 0)  -->

<svg version="1.1" id="_x32_" xmlns="http://www.w3.org/2000/svg" xmlns:xlink="http://www.w3.org/1999/xlink" x="0px" y="0px" viewBox="0 0 512 512" style="width: 256px; height: 256px; opacity: 1;" xml:space="preserve">
<style type="text/css">
	.st0{fill:#4B4B4B;}
</style>
<g>
	<path class="st0" d="M120.838,159.583c-21.03,0-38.074,17.03-38.074,38.07c0,21.038,17.044,38.079,38.074,38.079
		c21.03,0,38.079-17.041,38.079-38.079C158.918,176.613,141.869,159.583,120.838,159.583z M110.171,201.642
		c-7.89,0-14.285-6.386-14.285-14.274c0-7.89,6.395-14.285,14.285-14.285c7.885,0,14.279,6.395,14.279,14.285
		C124.45,195.256,118.056,201.642,110.171,201.642z" style="fill: rgb(75, 75, 75);"></path>
	<path class="st0" d="M76.154,91.089c0-21.038-17.044-38.07-38.074-38.07C17.049,53.019,0,70.05,0,91.089
		c0,21.039,17.049,38.079,38.079,38.079C59.109,129.167,76.154,112.128,76.154,91.089z M27.407,95.078
		c-7.89,0-14.285-6.386-14.285-14.275c0-7.89,6.395-14.285,14.285-14.285c7.889,0,14.284,6.395,14.284,14.285
		C41.69,88.693,35.296,95.078,27.407,95.078z" style="fill: rgb(75, 75, 75);"></path>
	<path class="st0" d="M391.161,235.731c21.03,0,38.07-17.041,38.07-38.079c0-21.039-17.04-38.07-38.07-38.07
		c-21.029,0-38.079,17.03-38.079,38.07C353.082,218.691,370.132,235.731,391.161,235.731z M380.488,173.083
		c7.89,0,14.285,6.395,14.285,14.285c0,7.889-6.395,14.274-14.285,14.274c-7.889,0-14.284-6.386-14.284-14.274
		C366.204,179.477,372.599,173.083,380.488,173.083z" style="fill: rgb(75, 75, 75);"></path>
	<path class="st0" d="M473.921,53.019c-21.03,0-38.079,17.032-38.079,38.07c0,21.039,17.049,38.079,38.079,38.079
		c21.03,0,38.079-17.04,38.079-38.079C512,70.05,494.951,53.019,473.921,53.019z M463.257,95.078
		c-7.889,0-14.284-6.386-14.284-14.275c0-7.89,6.395-14.285,14.284-14.285c7.89,0,14.285,6.395,14.285,14.285
		C477.542,88.693,471.147,95.078,463.257,95.078z" style="fill: rgb(75, 75, 75);"></path>
	<path class="st0" d="M179.353,275.035v107.302l76.645,76.644l76.644-76.644V275.035l-76.644-76.653L179.353,275.035z
		 M255.998,298.56l-54.029-12.392l54.029-54.038V298.56z M266.337,356.471l34.814,17.4l-34.814,26.119V356.471z" style="fill: rgb(75, 75, 75);"></path>
	<path class="st0" d="M428.619,400.711l-18.517-4.872c-6.106-1.604-10.872-6.368-12.474-12.474l-4.872-18.517
		c-0.342-1.288-1.495-2.179-2.828-2.179c-1.324,0-2.486,0.892-2.819,2.179l-4.872,18.517c-1.604,6.106-6.376,10.87-12.483,12.474
		l-18.518,4.872c-1.283,0.342-2.184,1.495-2.184,2.828c0,1.324,0.901,2.486,2.184,2.82l18.518,4.872
		c6.106,1.603,10.879,6.377,12.483,12.474l4.872,18.526c0.333,1.279,1.495,2.171,2.819,2.171c1.333,0,2.486-0.892,2.828-2.171
		l4.872-18.526c1.603-6.097,6.368-10.87,12.474-12.474l18.517-4.872c1.288-0.334,2.18-1.495,2.18-2.82
		C430.798,402.206,429.906,401.053,428.619,400.711z" style="fill: rgb(75, 75, 75);"></path>
	<path class="st0" d="M132.601,314.114l-26.884-7.07c-8.858-2.323-15.78-9.249-18.108-18.111l-7.079-26.866
		c-0.486-1.874-2.17-3.171-4.089-3.171c-1.927,0-3.607,1.297-4.098,3.171l-7.07,26.866c-2.337,8.862-9.258,15.788-18.112,18.111
		l-26.884,7.07c-1.864,0.495-3.157,2.171-3.157,4.098c0,1.927,1.293,3.62,3.157,4.107l26.884,7.07
		c8.854,2.315,15.775,9.24,18.112,18.111l7.07,26.885c0.491,1.846,2.171,3.143,4.098,3.143c1.919,0,3.603-1.296,4.089-3.143
		L87.61,347.5c2.328-8.871,9.25-15.796,18.108-18.111l26.884-7.07c1.86-0.487,3.157-2.18,3.157-4.107
		C135.758,316.285,134.461,314.609,132.601,314.114z" style="fill: rgb(75, 75, 75);"></path>
</g>
</svg>
