<!--?xml version="1.0" encoding="utf-8"?-->
<!-- Generator: Adobe Illustrator 18.1.1, SVG Export Plug-In . SVG Version: 6.00 Build 0)  -->

<svg version="1.1" id="_x32_" xmlns="http://www.w3.org/2000/svg" xmlns:xlink="http://www.w3.org/1999/xlink" x="0px" y="0px" viewBox="0 0 512 512" style="width: 256px; height: 256px; opacity: 1;" xml:space="preserve">
<style type="text/css">
	.st0{fill:#4B4B4B;}
</style>
<g>
	<path class="st0" d="M490.898,150.866c-16.496-28.633-40.716-50.04-68.479-63.078C397.233,35.806,344.05,0,282.327,0
		c-32.99,0-63.486,10.215-88.668,27.763c-57.697-4.194-115.394,23.974-146.211,77.406c-16.496,28.563-22.932,60.255-20.36,90.848
		C-5.334,243.806-9.682,307.7,21.14,361.134c16.493,28.554,40.633,49.969,68.396,62.997C114.718,476.106,167.905,512,229.624,512
		c32.989,0,63.569-10.216,88.756-27.763c57.688,4.106,115.306-23.974,146.123-77.406c16.496-28.563,22.932-60.264,20.36-90.848
		C517.29,268.184,521.716,204.219,490.898,150.866z M195.461,61.459c15.657-12.65,34.233-21.74,54.642-25.986
		c8.664-1.828,17.741-2.83,26.989-2.83c33.648,0,64.22,12.826,87.292,33.81c-29.068-0.906-58.72,6.014-85.714,21.583
		c-64.883,37.564-93.872,113.204-74.962,182.25c-34.316-23.49-56.809-62.805-56.809-107.455
		C146.898,121.855,165.808,85.283,195.461,61.459z M62.024,150.918c2.748-8.492,6.413-16.826,11.077-24.818
		c16.826-29.161,43.31-49.309,73.05-58.725c-15.411,24.659-24.241,53.811-24.241,84.966c0,74.963,50.98,137.846,120.114,156.097
		c-37.398,17.899-82.629,17.741-121.279-4.589c-35.402-20.404-57.64-55.05-63.468-92.616
		C54.107,191.402,55.523,170.752,62.024,150.918z M284.006,228.721l-1.336,0.747c5.582,12,9.248,24.571,10.914,37.152l-1.332-0.747
		c-7.582,10.822-16.659,20.237-26.654,28.07v-1.591c-13.16-1.16-25.825-4.237-37.565-9.072l1.248-0.748
		c-5.666-12.078-9.248-24.57-10.914-37.151l1.336,0.747c7.578-10.83,16.572-20.237,26.651-28.07v1.582
		C259.598,220.809,272.177,223.886,284.006,228.721z M117.826,405.723c-18.739-7.244-35.816-18.743-49.89-34.233v-0.088
		c-5.913-6.575-11.245-13.987-15.912-21.987c-16.827-29.239-21.072-62.224-14.409-92.703c13.745,25.653,34.566,47.894,61.64,63.552
		c64.888,37.564,145.016,24.738,195.248-26.242c-3.085,41.398-25.908,80.721-64.641,103.033
		C194.38,417.556,153.228,419.473,117.826,405.723z M316.657,450.453c-15.662,12.747-34.321,21.829-54.809,26.075
		c-8.664,1.828-17.657,2.83-26.906,2.83c-33.732,0-64.386-12.835-87.459-33.908c29.073,0.923,58.804-5.996,85.794-21.574
		c64.888-37.477,93.877-113.116,75.05-182.162c34.237,23.49,56.725,62.892,56.725,107.446
		C365.052,390.066,346.143,426.628,316.657,450.453z M449.927,361.073c-2.747,8.501-6.413,16.835-11.077,24.826
		c-16.826,29.23-43.314,49.398-73.05,58.804c15.327-24.738,24.237-53.89,24.237-85.126c0-74.883-51.059-137.767-120.193-156.017
		c37.402-17.987,82.712-17.741,121.362,4.589c35.481,20.396,57.639,55.05,63.473,92.536v0.087
		C457.844,320.598,456.428,341.248,449.927,361.073z M474.336,255.209c-13.662-25.662-34.488-47.894-61.556-63.552
		c-64.888-37.485-144.936-24.659-195.244,26.322c3.082-41.486,25.904-80.721,64.638-103.042
		c35.402-20.492,76.462-22.4,111.864-8.747c18.826,7.174,35.986,18.831,49.895,34.321c5.995,6.663,11.327,13.996,15.995,22.066
		C476.75,191.736,480.995,224.721,474.336,255.209z" style="fill: rgb(75, 75, 75);"></path>
</g>
</svg>
