<!--?xml version="1.0" encoding="utf-8"?-->
<!-- Generator: Adobe Illustrator 15.1.0, SVG Export Plug-In . SVG Version: 6.00 Build 0)  -->

<svg version="1.1" id="_x32_" xmlns="http://www.w3.org/2000/svg" xmlns:xlink="http://www.w3.org/1999/xlink" x="0px" y="0px" width="512px" height="512px" viewBox="0 0 512 512" style="width: 256px; height: 256px; opacity: 1;" xml:space="preserve">
<style type="text/css">

	.st0{fill:#4B4B4B;}

</style>
<g>
	<path class="st0" d="M175.609,192.828h148.172c2.547,0,4.922-1.219,6.406-3.266c1.484-2.063,1.891-4.719,1.078-7.109l-25.672-77
		c-1.063-3.203-4.078-5.375-7.469-5.375h-96.844c-3.406,0-6.422,2.172-7.484,5.375l-25.656,77c-0.813,2.391-0.406,5.047,1.078,7.109
		C170.688,191.609,173.078,192.828,175.609,192.828z M207.328,111.641h55.688l-68.75,39.219L207.328,111.641z" style="fill: rgb(75, 75, 75);"></path>
	<path class="st0" d="M137.875,324.547c-1.063-3.203-4.078-5.375-7.484-5.375H33.563c-3.406,0-6.422,2.172-7.484,5.375l-25.672,77
		c-0.813,2.391-0.391,5.047,1.078,7.109c1.484,2.047,3.875,3.266,6.406,3.266h148.172c2.531,0,4.922-1.219,6.391-3.266
		c1.484-2.063,1.891-4.719,1.078-7.109L137.875,324.547z M26.531,369.969l13.078-39.234h55.688L26.531,369.969z" style="fill: rgb(75, 75, 75);"></path>
	<path class="st0" d="M311.906,324.547c-1.063-3.203-4.078-5.375-7.5-5.375h-96.828c-3.391,0-6.406,2.172-7.469,5.375l-25.672,77
		c-0.813,2.391-0.406,5.047,1.078,7.109c1.469,2.047,3.859,3.266,6.391,3.266h148.172c2.547,0,4.922-1.219,6.406-3.266
		c1.484-2.063,1.891-4.719,1.078-7.109L311.906,324.547z M200.563,369.969l13.063-39.234h55.688L200.563,369.969z" style="fill: rgb(75, 75, 75);"></path>
	<path class="st0" d="M511.594,401.547l-25.672-77c-1.063-3.203-4.078-5.375-7.484-5.375h-96.828c-3.406,0-6.422,2.172-7.484,5.375
		l-25.656,77c-0.813,2.391-0.406,5.047,1.078,7.109c1.469,2.047,3.859,3.266,6.391,3.266h148.172c2.531,0,4.922-1.219,6.406-3.266
		C511.984,406.594,512.406,403.938,511.594,401.547z M374.578,369.969l13.078-39.234h55.688L374.578,369.969z" style="fill: rgb(75, 75, 75);"></path>
	<path class="st0" d="M85.5,302.156h148.172c2.547,0,4.938-1.219,6.406-3.281c1.484-2.047,1.891-4.703,1.078-7.094l-25.656-77
		c-1.063-3.203-4.078-5.375-7.484-5.375h-96.844c-3.391,0-6.406,2.172-7.484,5.375l-25.656,77c-0.813,2.391-0.406,5.047,1.078,7.094
		C80.594,300.938,82.969,302.156,85.5,302.156z M117.234,220.969h55.688l-68.766,39.219L117.234,220.969z" style="fill: rgb(75, 75, 75);"></path>
	<path class="st0" d="M277.625,214.781l-25.656,77c-0.813,2.391-0.406,5.047,1.078,7.094c1.469,2.063,3.859,3.281,6.391,3.281
		h148.172c2.547,0,4.922-1.219,6.406-3.281c1.484-2.047,1.891-4.703,1.078-7.094l-25.672-77c-1.063-3.203-4.078-5.375-7.484-5.375
		h-96.828C281.703,209.406,278.688,211.578,277.625,214.781z M346.844,220.969l-68.766,39.219l13.078-39.219H346.844z" style="fill: rgb(75, 75, 75);"></path>
</g>
</svg>
