<!--?xml version="1.0" encoding="utf-8"?-->
<!-- Generator: Adobe Illustrator 18.1.1, SVG Export Plug-In . SVG Version: 6.00 Build 0)  -->

<svg version="1.1" id="_x32_" xmlns="http://www.w3.org/2000/svg" xmlns:xlink="http://www.w3.org/1999/xlink" x="0px" y="0px" viewBox="0 0 512 512" style="width: 256px; height: 256px; opacity: 1;" xml:space="preserve">
<style type="text/css">
	.st0{fill:#4B4B4B;}
</style>
<g>
	<path class="st0" d="M345.685,205.497h0.578l-7.082-11.559c-9.704-15.804-19.985-27.966-27.463-37.834
		c-3.735-4.914-6.761-9.259-8.69-12.968c-1.954-3.735-2.771-6.686-2.762-9.136c0-6.843,0-19.226,0-32.674
		c1.105-1.913,2.251-3.834,3.298-5.977c1.319-2.82,2.614-5.87,2.664-9.852c0-7.354,0-48.52,0-58.8
		c0.016-4.642-1.93-8.962-4.79-12.269C297.1,9.44,290.899,6.076,283.282,3.668C275.656,1.303,266.495,0,256.016,0
		c-13.975,0.024-25.583,2.284-34.396,6.422c-4.394,2.086-8.146,4.666-11.023,8.005c-2.861,3.306-4.815,7.627-4.798,12.269
		c0,10.28,0,51.446,0,58.8c0.058,3.982,1.352,7.041,2.671,9.852c1.047,2.144,2.192,4.064,3.298,5.977c0,13.447,0,25.831,0,32.674
		c0.008,2.449-0.808,5.392-2.762,9.136c-2.893,5.59-8.269,12.515-14.774,20.826c-6.505,8.327-14.106,18.121-21.378,29.985
		l-7.082,11.551h0.561c-12.367,23.473-22.318,54.159-22.277,96.066v144.059c0,14.074,2.424,25.74,7.766,35.229
		c3.982,7.107,9.597,12.812,16.349,17.058c10.158,6.406,22.632,9.77,37.216,11.716c14.61,1.913,31.453,2.366,50.614,2.375
		c34.084-0.083,60.805-1.245,80.732-10.24c9.935-4.518,18.155-11.411,23.456-20.909c5.334-9.498,7.758-21.155,7.758-35.229V301.564
		C367.987,259.648,358.036,228.97,345.685,205.497z M229.576,93.576l-1.048-1.83c-1.211-2.111-3.026-5.251-3.38-6.587V27.166
		c1.55-2.292,10.941-7.816,30.868-7.816c19.928,0,29.318,5.524,30.868,7.816v57.993c-0.362,1.336-2.168,4.476-3.38,6.587
		l-1.055,1.839l-1.526,2.696v3.108V134c0,8.253,3.166,15.731,8.121,23.522H222.98c4.964-7.792,8.13-15.269,8.13-23.522V99.372
		v-3.092L229.576,93.576z M210.086,175.075c1.55-1.987,3.05-3.908,4.502-5.804h82.85c1.451,1.896,2.96,3.817,4.51,5.804
		c2.712,3.479,5.582,7.164,8.501,11.072h-54.432h-54.439C204.496,182.239,207.365,178.554,210.086,175.075z M318.47,417.69H193.53
		v-91.128h124.94V417.69z" style="fill: rgb(75, 75, 75);"></path>
</g>
</svg>
